<?xml version="1.0" encoding="UTF-8" standalone="no"?>
<!-- Created with Inkscape (http://www.inkscape.org/) -->

<svg
   width="500mm"
   height="500mm"
   viewBox="0 0 500 500"
   version="1.1"
   id="svg5"
   inkscape:version="1.2.1 (9c6d41e410, 2022-07-14)"
   sodipodi:docname="player.svg"
   inkscape:export-filename="player_run_4.png"
   inkscape:export-xdpi="25.4"
   inkscape:export-ydpi="25.4"
   xmlns:inkscape="http://www.inkscape.org/namespaces/inkscape"
   xmlns:sodipodi="http://sodipodi.sourceforge.net/DTD/sodipodi-0.dtd"
   xmlns="http://www.w3.org/2000/svg"
   xmlns:svg="http://www.w3.org/2000/svg">
  <sodipodi:namedview
     id="namedview7"
     pagecolor="#ffffff"
     bordercolor="#666666"
     borderopacity="1.0"
     inkscape:pageshadow="2"
     inkscape:pageopacity="0.0"
     inkscape:pagecheckerboard="0"
     inkscape:document-units="mm"
     showgrid="false"
     inkscape:showpageshadow="2"
     inkscape:deskcolor="#d1d1d1"
     inkscape:zoom="0.31019302"
     inkscape:cx="659.26693"
     inkscape:cy="1021.9443"
     inkscape:window-width="1920"
     inkscape:window-height="1009"
     inkscape:window-x="1912"
     inkscape:window-y="-8"
     inkscape:window-maximized="1"
     inkscape:current-layer="layer1" />
  <defs
     id="defs2" />
  <g
     inkscape:label="Layer 1"
     inkscape:groupmode="layer"
     id="layer1">
    <path
       style="font-variation-settings:normal;display:inline;vector-effect:none;fill:#a7a7a7;fill-opacity:0.519031;stroke:#000000;stroke-width:14.2168;stroke-linecap:butt;stroke-linejoin:miter;stroke-miterlimit:4;stroke-dasharray:none;stroke-dashoffset:0;stroke-opacity:1;-inkscape-stroke:none;stop-color:#000000"
       d="M 155.12692,330.09594 C 155.12692,330.09594 69.400571,476.88604 183.38825,489.01239 297.37592,501.13874 202.8105,430.80594 202.8105,430.80594 L 215.44019,342.54077 334.67926,348.11066 C 334.67926,348.11066 285.03356,481.01724 379.6191,490.71832 474.20461,500.4194 394.00592,460.25882 396.4312,445.7072 398.85647,431.15559 423.82851,398.65152 405.91628,322.73776 405.91628,322.73776 497.24365,233.32126 463.28988,143.58629 429.33613,53.851306 344.58529,25.262473 216.4981,52.679872 76.979328,82.544232 155.12692,330.09594 155.12692,330.09594 Z"
       id="path398-3-9-5"
       inkscape:label="player_idle"
       sodipodi:nodetypes="cscccsscssc" />
    <path
       style="font-variation-settings:normal;display:none;vector-effect:none;fill:#a7a7a7;fill-opacity:0.519031;stroke:#000000;stroke-width:14.2168;stroke-linecap:butt;stroke-linejoin:miter;stroke-miterlimit:4;stroke-dasharray:none;stroke-dashoffset:0;stroke-opacity:1;-inkscape-stroke:none;stop-color:#000000"
       d="M 168.94672,332.94896 C 168.94672,332.94896 43.131081,477.18017 157.11876,489.30652 271.10643,501.43287 186.77657,429.39414 186.77657,429.39414 L 263.37853,341.12897 310.96866,352.66961 C 310.96866,352.66961 216.96886,478.75248 311.5544,488.45356 406.13991,498.15464 343.85345,458.84702 346.27873,444.2954 348.704,429.74379 385.61753,411.7401 415.47126,333.26745 415.47126,333.26745 497.41603,233.61539 463.46226,143.88042 429.50851,54.145437 344.75767,25.556604 216.67048,52.974003 77.15171,82.838363 168.94672,332.94896 168.94672,332.94896 Z"
       id="path398-3-9-5-2"
       inkscape:label="player_run_1"
       sodipodi:nodetypes="cscccsscssc" />
    <path
       style="font-variation-settings:normal;display:none;vector-effect:none;fill:#a7a7a7;fill-opacity:0.519031;stroke:#000000;stroke-width:14.2168;stroke-linecap:butt;stroke-linejoin:miter;stroke-miterlimit:4;stroke-dasharray:none;stroke-dashoffset:0;stroke-opacity:1;-inkscape-stroke:none;stop-color:#000000"
       d="M 169.24069,332.20049 C 169.24069,332.20049 181.2747,493.60838 295.59283,485.1462 373.75603,479.36032 278.33764,432.05753 278.33764,432.05753 L 276.46695,341.23346 311.26263,351.92114 C 311.26263,351.92114 144.76093,474.59215 239.34647,484.29323 333.93198,493.99431 294.67554,459.80448 297.10082,445.25286 299.52609,430.70125 385.9115,410.99163 415.76523,332.51898 415.76523,332.51898 497.71,232.86692 463.75623,143.13195 429.80248,53.396969 345.05164,24.808136 216.96445,52.225535 77.445674,82.089895 169.24069,332.20049 169.24069,332.20049 Z"
       id="path398-3-9-5-2-1"
       inkscape:label="player_run_2"
       sodipodi:nodetypes="cscccsscssc" />
    <path
       style="font-variation-settings:normal;display:none;vector-effect:none;fill:#a7a7a7;fill-opacity:0.519031;stroke:#000000;stroke-width:14.2168;stroke-linecap:butt;stroke-linejoin:miter;stroke-miterlimit:4;stroke-dasharray:none;stroke-dashoffset:0;stroke-opacity:1;-inkscape-stroke:none;stop-color:#000000"
       d="M 169.5911,331.64657 C 169.5911,331.64657 223.42032,493.05446 337.73845,484.59228 415.90165,478.8064 338.3955,443.4451 338.3955,443.4451 L 276.81736,340.67954 311.61304,351.36722 C 311.61304,351.36722 174.1121,475.74416 268.69764,485.44524 363.28315,495.14632 304.58042,463.72936 291.48049,445.5519 277.68327,426.40691 386.26191,410.43771 416.11564,331.96506 416.11564,331.96506 498.06041,232.313 464.10664,142.57803 430.15289,52.843051 345.40205,24.254218 217.31486,51.671617 77.796076,81.535977 169.5911,331.64657 169.5911,331.64657 Z"
       id="path398-3-9-5-2-1-1"
       inkscape:label="player_run_3"
       sodipodi:nodetypes="cscccsscssc" />
    <path
       style="font-variation-settings:normal;display:none;vector-effect:none;fill:#a7a7a7;fill-opacity:0.519031;stroke:#000000;stroke-width:14.2168;stroke-linecap:butt;stroke-linejoin:miter;stroke-miterlimit:4;stroke-dasharray:none;stroke-dashoffset:0;stroke-opacity:1;-inkscape-stroke:none;stop-color:#000000"
       d="M 169.5911,331.64657 C 169.5911,331.64657 140.68286,494.76039 255.00099,486.29821 333.16419,480.51233 259.92286,438.32732 259.92286,438.32732 L 257.1992,341.5325 318.43675,351.36722 C 318.43675,351.36722 253.43771,477.45009 348.02325,487.15117 442.60876,496.85225 389.02381,462.02343 375.92388,443.84597 362.12666,424.70098 381.99709,419.82031 411.85082,341.34766 411.85082,341.34766 498.06041,232.313 464.10664,142.57803 430.15289,52.843051 345.40205,24.254218 217.31486,51.671617 77.796076,81.535977 169.5911,331.64657 169.5911,331.64657 Z"
       id="path1060"
       inkscape:label="player_run_4"
       sodipodi:nodetypes="cscccsscssc" />
    <path
       style="font-variation-settings:normal;display:none;vector-effect:none;fill:#a7a7a7;fill-opacity:0.519031;stroke:#000000;stroke-width:14.2168;stroke-linecap:butt;stroke-linejoin:miter;stroke-miterlimit:4;stroke-dasharray:none;stroke-dashoffset:0;stroke-opacity:1;-inkscape-stroke:none;stop-color:#000000"
       d="M 155.12692,330.09594 C 155.12692,330.09594 23.34054,480.29789 137.32822,492.42424 251.31589,504.55059 172.10381,439.33558 172.10381,439.33558 L 215.44019,342.54077 334.67926,348.11066 C 334.67926,348.11066 331.09359,477.60539 425.67913,487.30647 520.26464,497.00755 464.4721,456.59967 435.66752,432.05978 412.19064,412.05879 423.82851,398.65152 405.91628,322.73776 405.91628,322.73776 497.24365,233.32126 463.28988,143.58629 429.33613,53.851306 344.58529,25.262473 216.4981,52.679872 76.979328,82.544232 155.12692,330.09594 155.12692,330.09594 Z"
       id="path229"
       inkscape:label="player_jump"
       sodipodi:nodetypes="cscccsscssc" />
    <g
       id="g119"
       inkscape:label="eyes"
       style="display:inline">
      <ellipse
         style="display:inline;fill:#000000;fill-opacity:1;stroke-width:18.0051"
         id="path456"
         cx="263.5657"
         cy="156.9453"
         rx="26.441868"
         ry="27.294834"
         inkscape:label="left_eye" />
      <ellipse
         style="display:inline;fill:#000000;fill-opacity:1;stroke-width:17.9869"
         id="path456-2"
         cx="385.53952"
         cy="155.23936"
         rx="25.588905"
         ry="28.147799"
         inkscape:label="right_eye" />
    </g>
  </g>
</svg>
