<?xml version="1.0" encoding="UTF-8" standalone="no"?>
<!-- Created with Inkscape (http://www.inkscape.org/) -->

<svg
   width="500mm"
   height="500mm"
   viewBox="0 0 500 500"
   version="1.1"
   id="svg5"
   inkscape:version="1.2.1 (9c6d41e410, 2022-07-14)"
   sodipodi:docname="tree.svg"
   inkscape:export-filename="tree.png"
   inkscape:export-xdpi="15.24"
   inkscape:export-ydpi="15.24"
   xmlns:inkscape="http://www.inkscape.org/namespaces/inkscape"
   xmlns:sodipodi="http://sodipodi.sourceforge.net/DTD/sodipodi-0.dtd"
   xmlns="http://www.w3.org/2000/svg"
   xmlns:svg="http://www.w3.org/2000/svg">
  <sodipodi:namedview
     id="namedview7"
     pagecolor="#ffffff"
     bordercolor="#666666"
     borderopacity="1.0"
     inkscape:pageshadow="2"
     inkscape:pageopacity="0.0"
     inkscape:pagecheckerboard="0"
     inkscape:document-units="mm"
     showgrid="false"
     inkscape:showpageshadow="2"
     inkscape:deskcolor="#d1d1d1"
     inkscape:zoom="0.31019301"
     inkscape:cx="1798.88"
     inkscape:cy="1147.6725"
     inkscape:window-width="1920"
     inkscape:window-height="1009"
     inkscape:window-x="1912"
     inkscape:window-y="-8"
     inkscape:window-maximized="1"
     inkscape:current-layer="layer1" />
  <defs
     id="defs2" />
  <g
     inkscape:label="Layer 1"
     inkscape:groupmode="layer"
     id="layer1">
    <path
       style="font-variation-settings:normal;fill:#275f24;fill-opacity:1;stroke:#000000;stroke-width:3.55984;stroke-linecap:butt;stroke-linejoin:miter;stroke-miterlimit:4;stroke-dasharray:none;stroke-dashoffset:0;stroke-opacity:1;stop-color:#000000"
       d="M 238.46662,130.54163 C 256.77026,115.56404 319.27641,70.099326 298.05538,132.92282 276.75852,195.97079 308.40724,252.564 283.96326,258.31541 264.2207,262.96064 247.9771,288.74452 230.04068,268.07512 202.70853,236.57837 149.7294,223.49191 167.71384,190.71274 206.24722,120.48025 190.32577,156.84482 238.46662,130.54163 Z"
       id="path2506-7-1-7-7"
       sodipodi:nodetypes="cssssc" />
    <path
       style="font-variation-settings:normal;opacity:1;fill:#5f4324;fill-opacity:1;stroke:#000000;stroke-width:3;stroke-linecap:butt;stroke-linejoin:miter;stroke-miterlimit:4;stroke-dasharray:none;stroke-dashoffset:0;stroke-opacity:1;stop-color:#000000;stop-opacity:1"
       d="M 201.29939,236.2709 C 203.00533,479.36551 204.71125,497.27775 204.71125,497.27775 L 280.625,498.98368 282.33093,236.2709 Z"
       id="path2248"
       sodipodi:nodetypes="ccccc" />
    <path
       style="font-variation-settings:normal;opacity:1;fill:#275f24;fill-opacity:1;stroke:#000000;stroke-width:3.65874;stroke-linecap:butt;stroke-linejoin:miter;stroke-miterlimit:4;stroke-dasharray:none;stroke-dashoffset:0;stroke-opacity:1;stop-color:#000000;stop-opacity:1"
       d="M 109.38833,281.06417 C 116.18626,244.13307 54.155138,264.50886 86.445311,211.02243 118.73548,157.53601 188.94602,59.210943 179.06714,140.98068 170.75679,209.76728 268.05906,140.73348 249.59567,200.83455 221.87472,291.0703 262.3418,284.88464 198.61119,321.81574 134.88057,358.74683 106.8391,349.83245 109.38833,281.06417 Z"
       id="path2506"
       sodipodi:nodetypes="cssssc" />
    <path
       style="font-variation-settings:normal;fill:#275f24;fill-opacity:1;stroke:#000000;stroke-width:3.57099;stroke-linecap:butt;stroke-linejoin:miter;stroke-miterlimit:4;stroke-dasharray:none;stroke-dashoffset:0;stroke-opacity:1;stop-color:#000000"
       d="M 129.61054,153.44173 C 112.96431,138.23975 110.80187,74.022677 123.98399,79.554447 174.93887,100.93729 226.23179,69.46119 247.39619,49.807197 268.54111,30.171296 301.54115,115.87374 238.04097,142.59445 174.45571,169.35097 272.53356,231.3381 204.21401,233.37506 135.89447,235.412 162.5501,198.0067 129.61054,153.44173 Z"
       id="path2506-7"
       sodipodi:nodetypes="cssssc" />
    <path
       style="font-variation-settings:normal;fill:#275f24;fill-opacity:1;stroke:#000000;stroke-width:3;stroke-linecap:butt;stroke-linejoin:miter;stroke-miterlimit:4;stroke-dasharray:none;stroke-dashoffset:0;stroke-opacity:1;stop-color:#000000"
       d="M 261.67583,212.98134 C 256.60798,193.8048 293.69911,181.62897 307.17611,184.55482 352.56896,194.40959 404.06539,237.06702 412.53137,252.97718 420.35994,267.68944 388.30312,276.87894 365.73169,271.63005 301.50532,256.69451 362.64183,317.97142 326.53835,320.38859 258.10353,324.97037 264.81248,258.42605 261.67583,212.98134 Z"
       id="path2506-7-1"
       sodipodi:nodetypes="cssssc" />
    <path
       style="font-variation-settings:normal;fill:#275f24;fill-opacity:1;stroke:#000000;stroke-width:3;stroke-linecap:butt;stroke-linejoin:miter;stroke-miterlimit:4;stroke-dasharray:none;stroke-dashoffset:0;stroke-opacity:1;stop-color:#000000"
       d="M 255.17539,118.42498 C 250.10754,99.248443 237.22626,35.928732 278.49862,75.498083 319.91847,115.20885 375.3879,113.5099 371.05942,133.68488 367.56346,149.97952 381.78793,171.76178 359.23125,177.07369 324.8586,185.16817 295.58098,219.15024 276.53677,193.41962 235.73275,138.28932 258.31204,163.86969 255.17539,118.42498 Z"
       id="path2506-7-1-7"
       sodipodi:nodetypes="cssssc" />
    <path
       style="fill:none;stroke:#000000;stroke-width:3;stroke-linecap:butt;stroke-linejoin:miter;stroke-dasharray:none;stroke-opacity:1"
       d="M 225.56079,341.64956 C 225.42574,344.48796 225.76336,347.34321 225.56079,350.1792 225.39747,352.46562 224.93592,354.72202 224.70783,357.00291 224.56895,358.39171 224.70783,359.86906 224.70783,361.26773"
       id="path4161" />
    <path
       style="fill:none;stroke:#000000;stroke-width:3;stroke-linecap:butt;stroke-linejoin:miter;stroke-dasharray:none;stroke-opacity:1"
       d="M 262.99436,406.34412 C 260.7891,408.13622 258.88649,410.29179 256.638,412.03196 254.82524,413.43491 252.83597,414.5956 250.98414,415.94659 249.85658,416.7692 248.84826,417.85784 247.80596,418.79051"
       id="path4161-3" />
    <path
       style="fill:none;stroke:#000000;stroke-width:3;stroke-linecap:butt;stroke-linejoin:miter;stroke-dasharray:none;stroke-opacity:1"
       d="M 231.12386,448.91172 C 230.98881,451.75012 231.32643,454.60537 231.12386,457.44136 230.96054,459.72778 230.49899,461.98418 230.2709,464.26507 230.13202,465.65387 230.2709,467.13122 230.2709,468.52989"
       id="path4161-5" />
  </g>
</svg>
