<?xml version="1.0" encoding="UTF-8" standalone="no"?>
<!-- Created with Inkscape (http://www.inkscape.org/) -->

<svg
   width="500mm"
   height="500mm"
   viewBox="0 0 500 500"
   version="1.1"
   id="svg5"
   inkscape:version="1.2.1 (9c6d41e410, 2022-07-14)"
   sodipodi:docname="vines.svg"
   inkscape:export-filename="main_vines.png"
   inkscape:export-xdpi="10.16"
   inkscape:export-ydpi="10.16"
   xmlns:inkscape="http://www.inkscape.org/namespaces/inkscape"
   xmlns:sodipodi="http://sodipodi.sourceforge.net/DTD/sodipodi-0.dtd"
   xmlns="http://www.w3.org/2000/svg"
   xmlns:svg="http://www.w3.org/2000/svg">
  <sodipodi:namedview
     id="namedview7"
     pagecolor="#303030"
     bordercolor="#666666"
     borderopacity="1.0"
     inkscape:pageshadow="2"
     inkscape:pageopacity="0"
     inkscape:pagecheckerboard="0"
     inkscape:document-units="mm"
     showgrid="false"
     inkscape:showpageshadow="2"
     inkscape:deskcolor="#d1d1d1"
     inkscape:zoom="0.31019301"
     inkscape:cx="1121.8821"
     inkscape:cy="838.18781"
     inkscape:window-width="1920"
     inkscape:window-height="1009"
     inkscape:window-x="1912"
     inkscape:window-y="-8"
     inkscape:window-maximized="1"
     inkscape:current-layer="layer2" />
  <defs
     id="defs2" />
  <g
     inkscape:label="main_vines"
     inkscape:groupmode="layer"
     id="layer1"
     style="display:inline">
    <path
       style="font-variation-settings:normal;vector-effect:none;fill:#273f2a;fill-opacity:1;stroke:none;stroke-width:10;stroke-linecap:butt;stroke-linejoin:miter;stroke-miterlimit:4;stroke-dasharray:none;stroke-dashoffset:0;stroke-opacity:1;-inkscape-stroke:none;stop-color:#000000"
       d="M 16.067203,470.49875 C 119.3707,438.5261 95.652174,424.99214 111.35976,416.01058 144.41623,397.10897 233.67626,424.57957 253.81301,470.73162 277.06075,524.01387 338.36567,533.54829 331.25424,517.46617 324.14281,501.38403 339.77383,486.19326 301.1653,462.4145 262.55679,438.63577 285.89256,421.12374 251.39891,398.46598 216.90523,375.80821 109.54716,354.51737 92.942784,366.79084 76.338414,379.06429 55.702615,424.50094 -11.174075,436.33958 -78.0508,448.17821 -38.21383,435.64803 -64.310005,440.60147 -87.00832,467.18907 -26.075616,484.52591 16.067203,470.49875 Z"
       id="path2248-6-1"
       sodipodi:nodetypes="cssssssscc" />
    <path
       style="font-variation-settings:normal;vector-effect:none;fill:#41864a;fill-opacity:1;stroke:none;stroke-width:10;stroke-linecap:butt;stroke-linejoin:miter;stroke-miterlimit:4;stroke-dasharray:none;stroke-dashoffset:0;stroke-opacity:1;-inkscape-stroke:none;stop-color:#000000"
       d="M 13.070288,424.55921 C 13.070288,424.55921 120.0795,272.58358 227.36223,286.15833 334.64498,299.73308 313.63267,317.17496 330.65974,323.29665 366.49308,336.1797 449.63727,293.64698 461.46587,244.70227 475.12191,188.19592 533.84475,168.17525 529.62981,185.24691 525.41487,202.31857 543.44326,214.56868 509.54303,244.68219 475.64282,274.79565 501.66177,287.99579 471.61969,316.29173 441.5776,344.58767 339.53795,384.17257 321.05682,374.96436 302.57571,365.75616 265.28788,328.63565 197.37145,328.57323 129.455,328.51082 59.83304,441.72673 32.779848,452.48391 3.3727972,464.17706 -47.794463,529.49889 -49.064493,493.60561 -49.983323,467.63795 13.070288,424.55921 13.070288,424.55921 Z"
       id="path2248-8"
       sodipodi:nodetypes="cssssssssssc" />
    <path
       style="font-variation-settings:normal;vector-effect:none;fill:#1b6b25;fill-opacity:1;stroke:none;stroke-width:10;stroke-linecap:butt;stroke-linejoin:miter;stroke-miterlimit:4;stroke-dasharray:none;stroke-dashoffset:0;stroke-opacity:1;-inkscape-stroke:none;stop-color:#000000"
       d="M -10.170919,473.92772 C -10.170919,473.92772 92.566572,509.24844 160.72485,425.29425 228.88314,341.34003 201.64221,343.2553 209.71803,327.0634 226.71352,292.98768 331.55451,271.38566 373.92936,298.58625 422.85085,329.98916 541.81425,337.40924 526.96966,327.98345 512.12507,318.55766 547.34572,284.80322 502.03258,286.46674 456.71947,288.13028 357.70797,234.39829 316.43946,234.70912 275.17093,235.01996 174.06361,276.92895 167.06996,296.35656 160.0763,315.78415 158.78003,368.38296 109.73582,415.36499 60.691602,462.34703 14.36844,413.17154 -12.61881,424.09308 -41.954193,435.96489 -56.64492,423.66314 -32.75707,450.48311 -15.47496,469.88652 -10.170919,473.92772 -10.170919,473.92772 Z"
       id="path2248-0-0"
       sodipodi:nodetypes="cssssssssssc" />
    <path
       style="font-variation-settings:normal;display:inline;vector-effect:none;fill:#1b6b25;fill-opacity:1;stroke:none;stroke-width:10;stroke-linecap:butt;stroke-linejoin:miter;stroke-miterlimit:4;stroke-dasharray:none;stroke-dashoffset:0;stroke-opacity:1;-inkscape-stroke:none;stop-color:#000000"
       d="M 92.321608,158.17743 C 92.321608,158.17743 109.96542,265.37464 216.20505,285.54883 322.44471,305.72301 338.54264,283.5039 356.6277,282.93197 445.92791,398.5241 486.226,433.67176 457.84919,332.21611 437.99835,296.03418 353.14125,226.90874 332.72111,229.9683 312.30098,233.02784 265.38242,256.83885 200.75746,235.95202 136.13248,215.06519 142.92557,147.35528 134.17768,119.58721 129.42859,104.51238 103.43523,39.68407 91.157224,73.435966 82.274462,97.854396 92.321608,158.17743 92.321608,158.17743 Z"
       id="path2248-0-0-7"
       sodipodi:nodetypes="csccssssc" />
    <path
       style="font-variation-settings:normal;vector-effect:none;fill:#628252;fill-opacity:1;stroke:none;stroke-width:10;stroke-linecap:butt;stroke-linejoin:miter;stroke-miterlimit:4;stroke-dasharray:none;stroke-dashoffset:0;stroke-opacity:1;-inkscape-stroke:none;stop-color:#000000"
       d="M 26.244997,218.15232 C 26.244997,218.15232 204.37633,215.02374 250.84205,245.80322 301.57905,279.41203 357.71221,304.24511 365.67387,320.49344 382.42912,354.68792 430.78427,428.09688 473.34949,401.19516 522.49077,370.13731 578.58442,396.64582 563.67387,405.96691 548.76332,415.288 553.1774,436.63288 507.87708,434.65051 462.5768,432.66811 472.06576,460.25777 430.80046,459.65652 389.53515,459.05527 350.13864,395.96463 343.28188,376.48828 336.42512,357.01196 286.02716,340.2298 237.31481,292.90378 188.60244,245.57775 47.863541,263.03123 20.953815,251.92004 -8.2972913,239.84208 -90.504148,251.11429 -66.428141,224.46309 -49.009909,205.18178 26.244997,218.15232 26.244997,218.15232 Z"
       id="path2248-8-5"
       sodipodi:nodetypes="cssssssssssc" />
    <path
       style="font-variation-settings:normal;display:inline;vector-effect:none;fill:#628252;fill-opacity:1;stroke:none;stroke-width:10;stroke-linecap:butt;stroke-linejoin:miter;stroke-miterlimit:4;stroke-dasharray:none;stroke-dashoffset:0;stroke-opacity:1;-inkscape-stroke:none;stop-color:#000000"
       d="M 372.55777,148.12577 C 372.55777,148.12577 274.4204,296.8188 222.76091,317.74095 183.1985,334.49906 75.90893,322.65323 191.56049,279.95229 258.13798,266.53273 323.31789,140.58177 347.6976,124.66884 374.19856,107.37135 411.38203,33.193043 419.75124,68.120067 425.80611,93.388668 372.55777,148.12577 372.55777,148.12577 Z"
       id="path2248-8-5-9"
       sodipodi:nodetypes="cccssc" />
    <path
       style="font-variation-settings:normal;vector-effect:none;fill:#273f2a;fill-opacity:1;stroke:none;stroke-width:10;stroke-linecap:butt;stroke-linejoin:miter;stroke-miterlimit:4;stroke-dasharray:none;stroke-dashoffset:0;stroke-opacity:1;-inkscape-stroke:none;stop-color:#000000"
       d="M 60.303001,472.43247 C 60.303001,472.43247 170.60555,354.86216 273.90903,386.83481 377.21252,418.80746 353.494,432.34142 369.20158,441.32298 402.25805,460.22459 491.51808,432.75399 511.65483,386.60194 534.90257,333.31969 596.20749,323.78527 589.09606,339.86739 581.98463,355.94953 597.61565,371.1403 559.00712,394.91906 520.39861,418.69779 543.73438,436.20982 509.24073,458.86758 474.74705,481.52535 367.38898,502.81619 350.78461,490.54272 334.18024,478.26927 303.89426,435.24517 237.01757,423.40653 170.14085,411.5679 95.381911,513.36225 66.873191,519.26526 35.883981,525.68188 -0.94125062,557.80986 4.0320914,522.24013 7.6301514,496.50654 60.303001,472.43247 60.303001,472.43247 Z"
       id="path2248-6"
       sodipodi:nodetypes="cssssssssssc" />
    <path
       style="font-variation-settings:normal;vector-effect:none;fill:#1b6b25;fill-opacity:1;stroke:none;stroke-width:10;stroke-linecap:butt;stroke-linejoin:miter;stroke-miterlimit:4;stroke-dasharray:none;stroke-dashoffset:0;stroke-opacity:1;-inkscape-stroke:none;stop-color:#000000"
       d="M -102.14815,284.52236 C -102.14815,284.52236 54.871609,247.99537 123.02989,331.94956 191.18818,415.90378 163.94725,413.98851 172.02307,430.18041 189.01856,464.25613 293.85955,485.85815 336.2344,458.65756 385.15589,427.25465 581.32074,429.48475 566.47615,438.91054 551.63156,448.33633 557.90166,483.29704 512.58852,481.63352 467.27541,479.96998 320.01301,522.84552 278.7445,522.53469 237.47597,522.22385 136.36865,480.31486 129.375,460.88725 122.38134,441.45966 121.08507,388.86085 72.040863,341.87882 22.99664,294.89678 -95.70288,338.04091 -122.69013,327.11937 -152.02551,315.24756 -200.49187,321.51794 -176.60402,294.69797 -159.32191,275.29456 -102.14815,284.52236 -102.14815,284.52236 Z"
       id="path2248-0"
       sodipodi:nodetypes="cssssssssssc" />
    <path
       style="font-variation-settings:normal;opacity:1;vector-effect:none;fill:#2c5a32;fill-opacity:1;stroke:none;stroke-width:10;stroke-linecap:butt;stroke-linejoin:miter;stroke-miterlimit:4;stroke-dasharray:none;stroke-dashoffset:0;stroke-opacity:1;-inkscape-stroke:none;stop-color:#000000;stop-opacity:1"
       d="M -8.5296374,301.09613 C -8.5296374,301.09613 128.7975,216.65273 220.06459,274.65425 311.3317,332.65578 284.88981,339.47948 297.68428,352.27393 324.61014,379.19974 417.95214,376.15691 449.5118,336.9206 485.94722,291.62253 547.6026,298.53724 536.51407,312.18465 525.42554,325.83207 536.51406,344.59727 493.01291,357.39173 449.51179,370.18616 467.42401,393.21618 428.1877,406.01064 388.95137,418.8051 279.77205,411.12843 266.97759,394.92211 254.18313,378.7158 236.27089,329.24393 174.85753,300.24316 113.44415,271.24239 14.55748,349.80713 -14.50038,348.00911 -46.086522,346.05465 -90.061661,367.37348 -75.913761,334.36171 -65.678191,310.47873 -8.5296374,301.09613 -8.5296374,301.09613 Z"
       id="path2248"
       sodipodi:nodetypes="cssssssssssc" />
    <path
       style="font-variation-settings:normal;display:inline;vector-effect:none;fill:#41864a;fill-opacity:1;stroke:none;stroke-width:10;stroke-linecap:butt;stroke-linejoin:miter;stroke-miterlimit:4;stroke-dasharray:none;stroke-dashoffset:0;stroke-opacity:1;-inkscape-stroke:none;stop-color:#000000"
       d="M 1.4749865,187.14749 C 1.4749865,187.14749 134.13525,251.49477 216.86372,321.1357 240.78231,341.2704 257.57752,369.51872 270.8095,384.92652 295.61822,413.81471 320.00353,434.72421 367.21089,452.24467 417.03216,470.73525 508.9768,510.88305 491.82335,514.75171 474.66991,518.62037 486.28095,553.87194 444.1821,537.02748 402.0833,520.18302 322.59385,490.50391 283.8467,476.29668 245.09956,462.08943 233.98636,431.19208 233.95268,410.54402 233.91901,389.89599 197.54978,392.82389 167.21851,332.05663 136.88723,271.28936 21.544565,261.38558 -0.17995079,242.00421 -23.794689,220.9365 -117.90125,194.16701 -86.369249,176.97187 -63.556832,164.53171 1.4749865,187.14749 1.4749865,187.14749 Z"
       id="path2248-8-8"
       sodipodi:nodetypes="cssssssssssc" />
  </g>
  <g
     inkscape:label="right_vines"
     inkscape:groupmode="layer"
     id="g11585"
     style="display:none"
     transform="matrix(-1,0,0,1,499.53646,0)">
    <path
       style="font-variation-settings:normal;vector-effect:none;fill:#273f2a;fill-opacity:1;stroke:none;stroke-width:10;stroke-linecap:butt;stroke-linejoin:miter;stroke-miterlimit:4;stroke-dasharray:none;stroke-dashoffset:0;stroke-opacity:1;-inkscape-stroke:none;stop-color:#000000"
       d="M 253.81301,470.73162 C 277.06075,524.01387 338.36567,533.54829 331.25424,517.46617 324.14281,501.38403 339.77383,486.19326 301.1653,462.4145 262.55679,438.63577 285.89256,421.12374 251.39891,398.46598 124.68373,380.8424 227.93228,428.49429 253.81301,470.73162 Z"
       id="path11569"
       sodipodi:nodetypes="csscc" />
    <path
       style="font-variation-settings:normal;vector-effect:none;fill:#41864a;fill-opacity:1;stroke:none;stroke-width:10;stroke-linecap:butt;stroke-linejoin:miter;stroke-miterlimit:4;stroke-dasharray:none;stroke-dashoffset:0;stroke-opacity:1;-inkscape-stroke:none;stop-color:#000000"
       d="M 227.36223,286.15833 C 334.64498,299.73308 301.83752,296.2899 318.86459,302.41159 354.69793,315.29464 402.95109,184.89347 453.02196,179.56355 473.91564,177.33947 510.92557,197.12579 532.04236,208.16609 547.6254,216.31323 569.03217,217.12757 535.13194,247.24108 501.23173,277.35454 490.80532,220.44452 448.70051,224.61501 407.63179,228.68287 377.92131,362.84848 359.44018,353.64027 340.95907,344.43207 242.25786,329.48861 174.34143,329.42619 159.90229,383.33912 64.50715,310.52442 227.36223,286.15833 Z"
       id="path11571"
       sodipodi:nodetypes="csssssscc" />
    <path
       style="font-variation-settings:normal;vector-effect:none;fill:#1b6b25;fill-opacity:1;stroke:none;stroke-width:10;stroke-linecap:butt;stroke-linejoin:miter;stroke-miterlimit:4;stroke-dasharray:none;stroke-dashoffset:0;stroke-opacity:1;-inkscape-stroke:none;stop-color:#000000"
       d="M 209.71803,327.0634 C 226.71352,292.98768 331.55451,271.38566 373.92936,298.58625 422.85085,329.98916 541.81425,337.40924 526.96966,327.98345 512.12507,318.55766 547.34572,284.80322 502.03258,286.46674 456.71947,288.13028 357.70797,234.39829 316.43946,234.70912 275.17093,235.01996 174.06361,276.92895 167.06996,296.35656 153.72899,333.25152 155.6398,387.64279 209.71803,327.0634 Z"
       id="path11573"
       sodipodi:nodetypes="csssscc" />
    <path
       style="font-variation-settings:normal;vector-effect:none;fill:#628252;fill-opacity:1;stroke:none;stroke-width:10;stroke-linecap:butt;stroke-linejoin:miter;stroke-miterlimit:4;stroke-dasharray:none;stroke-dashoffset:0;stroke-opacity:1;-inkscape-stroke:none;stop-color:#000000"
       d="M 250.84205,245.80322 C 301.57905,279.41203 357.71221,304.24511 365.67387,320.49344 382.42912,354.68792 430.78427,428.09688 473.34949,401.19516 522.49077,370.13731 578.58442,396.64582 563.67387,405.96691 548.76332,415.288 553.1774,436.63288 507.87708,434.65051 462.5768,432.66811 472.06576,460.25777 430.80046,459.65652 389.53515,459.05527 350.13864,395.96463 343.28188,376.48828 336.42512,357.01196 296.88361,334.19844 248.17126,286.87242 213.50005,264.91884 196.0813,222.61119 250.84205,245.80322 Z"
       id="path11575"
       sodipodi:nodetypes="csssssscc" />
    <path
       style="font-variation-settings:normal;vector-effect:none;fill:#273f2a;fill-opacity:1;stroke:none;stroke-width:10;stroke-linecap:butt;stroke-linejoin:miter;stroke-miterlimit:4;stroke-dasharray:none;stroke-dashoffset:0;stroke-opacity:1;-inkscape-stroke:none;stop-color:#000000"
       d="M 273.90903,487.126 C 326.88767,464.53595 337.99431,424.63114 369.05524,422.47329 407.04256,419.83425 491.51808,441.20682 511.65483,487.35887 534.90257,540.64112 596.20749,550.17554 589.09606,534.09342 581.98463,518.01128 597.61565,502.82051 559.00712,479.04175 520.39861,455.26302 543.73438,434.73531 509.24073,412.07755 474.74705,389.41978 378.07028,378.65637 358.46128,385.12402 334.18024,393.13265 303.89426,438.71564 237.01757,450.55428 227.73221,447.00351 171.11507,429.45685 128.7984,422.17354 92.175291,415.87018 13.148475,375.44531 12.634603,391.42945 11.738611,419.29953 93.752923,448.69295 124.05796,459.38891 177.00957,478.07782 254.47767,489.27397 273.90903,487.126 Z"
       id="path11577"
       sodipodi:nodetypes="csssssscsssc" />
    <path
       style="font-variation-settings:normal;display:inline;vector-effect:none;fill:#207f18;fill-opacity:1;stroke:none;stroke-width:10;stroke-linecap:butt;stroke-linejoin:miter;stroke-miterlimit:4;stroke-dasharray:none;stroke-dashoffset:0;stroke-opacity:1;-inkscape-stroke:none;stop-color:#000000"
       d="M 248.87166,299.0226 C 254.67806,315.0572 323.15464,386.45326 337.30887,410.23159 353.35986,445.55872 375.2404,492.97603 382.49778,483.82367 389.96663,474.4046 384.10751,419.98589 371.30364,401.04427 356.22319,380.39755 295.11439,312.13499 284.73143,292.72669 277.7706,275.99357 296.07365,232.32886 305.58305,190.45622 311.41962,164.75614 348.52573,102.56987 333.27386,97.759755 309.03506,90.115361 274.98028,158.49995 267.00503,188.84783 253.86721,238.84058 245.41579,285.91382 248.87166,299.0226 Z"
       id="path11577-8"
       sodipodi:nodetypes="ccsccsssc" />
    <path
       style="font-variation-settings:normal;vector-effect:none;fill:#1b6b25;fill-opacity:1;stroke:none;stroke-width:10;stroke-linecap:butt;stroke-linejoin:miter;stroke-miterlimit:4;stroke-dasharray:none;stroke-dashoffset:0;stroke-opacity:1;-inkscape-stroke:none;stop-color:#000000"
       d="M 336.2344,458.65756 C 385.15589,427.25465 581.32074,429.48475 566.47615,438.91054 551.63156,448.33633 557.90166,483.29704 512.58852,481.63352 467.27541,479.96998 262.01149,540.75775 247.18485,519.12284 224.05513,521.73787 171.03257,422.42207 138.76689,377.35536 103.65914,328.31902 -9.5381759,195.59563 36.811235,197.57209 52.724505,198.25068 94.026765,246.87238 137.7562,303.28142 198.84113,382.07829 262.10328,470.09972 270.07305,469.83399 300.93427,468.80499 324.538,467.59991 336.2344,458.65756 Z"
       id="path11579"
       sodipodi:nodetypes="csscssssc" />
    <path
       style="font-variation-settings:normal;opacity:1;vector-effect:none;fill:#2c5a32;fill-opacity:1;stroke:none;stroke-width:10;stroke-linecap:butt;stroke-linejoin:miter;stroke-miterlimit:4;stroke-dasharray:none;stroke-dashoffset:0;stroke-opacity:1;-inkscape-stroke:none;stop-color:#000000;stop-opacity:1"
       d="M 220.06459,274.65425 C 264.4187,307.06687 294.13898,319.7187 316.98464,329.35475 371.51456,352.35487 413.37876,331.70229 447.20273,326.64952 489.36469,320.35119 547.6026,298.53724 536.51407,312.18465 525.42554,325.83207 536.51406,344.59727 493.01291,357.39173 449.51179,370.18616 457.77383,363.05936 418.53752,375.85382 379.30119,388.64828 317.1665,382.17789 304.37204,365.97157 291.57758,349.76526 236.27089,334.06902 186.92026,295.41807 177.51564,289.71748 137.98829,261.51647 110.18763,223.59769 75.845867,176.75716 47.208327,163.07381 73.903782,147.23869 87.463928,139.19512 105.01194,170.12247 149.89407,208.93946 185.20632,239.4798 214.23512,270.11391 220.06459,274.65425 Z"
       id="path11581"
       sodipodi:nodetypes="csssssscsssc" />
    <path
       style="font-variation-settings:normal;vector-effect:none;fill:#41864a;fill-opacity:1;stroke:none;stroke-width:10;stroke-linecap:butt;stroke-linejoin:miter;stroke-miterlimit:4;stroke-dasharray:none;stroke-dashoffset:0;stroke-opacity:1;-inkscape-stroke:none;stop-color:#000000"
       d="M 76.11738,302.60562 C 100.03597,322.74032 273.8622,408.72258 290.713,419.90843 322.4382,440.96815 320.00353,434.72421 367.21089,452.24467 417.03216,470.73525 508.9768,510.88305 491.82335,514.75171 474.66991,518.62037 486.28095,553.87194 444.1821,537.02748 402.0833,520.18302 338.27538,478.4412 299.52824,464.23395 277.47733,456.14864 219.00715,423.59772 163.51797,393.42784 121.50335,370.58419 79.014006,349.46955 67.831752,339.29126 52.256502,329.52631 -0.05481765,274.87705 76.11738,302.60562 Z"
       id="path11583"
       sodipodi:nodetypes="csssssscc" />
  </g>
  <g
     inkscape:groupmode="layer"
     id="layer2"
     inkscape:label="left_vines"
     transform="matrix(-1,0,0,1,504.26839,-1.2794453)"
     style="display:none">
    <path
       style="font-variation-settings:normal;display:inline;vector-effect:none;fill:#273f2a;fill-opacity:1;stroke:none;stroke-width:10;stroke-linecap:butt;stroke-linejoin:miter;stroke-miterlimit:4;stroke-dasharray:none;stroke-dashoffset:0;stroke-opacity:1;-inkscape-stroke:none;stop-color:#000000"
       d="M 16.298961,470.76077 C 119.60246,438.78812 95.883934,425.25416 111.59152,416.2726 144.64799,397.37099 233.90802,424.84159 254.04477,470.99364 277.29251,524.27589 338.59743,533.81031 331.486,517.72819 324.37457,501.64605 340.00559,486.45528 301.39706,462.67652 262.78855,438.89779 286.12432,421.38576 251.63067,398.728 217.13699,376.07023 109.77892,354.77939 93.174544,367.05286 76.57017,379.32631 55.93437,424.76296 -10.942318,436.6016 -77.819042,448.44023 -37.982072,435.91005 -64.078247,440.86349 -86.776562,467.45109 -25.843858,484.78793 16.298961,470.76077 Z"
       id="path2248-6-1-6"
       sodipodi:nodetypes="cssssssscc" />
    <path
       style="font-variation-settings:normal;display:inline;vector-effect:none;fill:#41864a;fill-opacity:1;stroke:none;stroke-width:10;stroke-linecap:butt;stroke-linejoin:miter;stroke-miterlimit:4;stroke-dasharray:none;stroke-dashoffset:0;stroke-opacity:1;-inkscape-stroke:none;stop-color:#000000"
       d="M -14.319214,486.88567 C -14.319214,486.88567 43.09253,539.46457 86.776896,549.26464 101.27436,549.03034 97.009994,536.67925 92.288848,522.40989 58.899645,514.96999 29.815113,476.28982 3.3202108,464.22282 -25.479971,451.10589 -69.980479,379.0957 -73.00388,414.88396 -75.191218,440.77564 -14.319214,486.88567 -14.319214,486.88567 Z"
       id="path2248-8-86"
       sodipodi:nodetypes="cccssc" />
    <path
       style="font-variation-settings:normal;display:inline;vector-effect:none;fill:#1b6b25;fill-opacity:1;stroke:none;stroke-width:10;stroke-linecap:butt;stroke-linejoin:miter;stroke-miterlimit:4;stroke-dasharray:none;stroke-dashoffset:0;stroke-opacity:1;-inkscape-stroke:none;stop-color:#000000"
       d="M -9.9391617,474.18974 C -9.9391617,474.18974 143.47778,459.76339 160.95661,425.55627 185.98431,376.57557 196.75619,329.01694 204.83201,314.53097 213.15314,299.60496 257.26095,262.24368 301.30019,232.33997 327.77552,214.36258 398.64856,157.01102 406.79972,149.78661 422.51652,139.15455 458.10849,113.75189 440.58709,97.581691 419.12443,77.774176 405.2714,109.42747 377.71049,123.97504 370.78634,128.90029 294.30743,190.98063 276.88291,206.86439 255.85751,226.03063 170.17632,294.79344 166.44876,305.14822 159.45511,324.57581 131.24743,392.96995 109.96758,415.62701 94.02427,432.60216 12.041307,425.37505 -12.387053,424.3551 -44.006061,423.03492 -56.413162,423.92516 -32.525312,450.74513 -15.243203,470.14854 -9.9391617,474.18974 -9.9391617,474.18974 Z"
       id="path2248-0-0-6"
       sodipodi:nodetypes="cssscscsssssc" />
    <path
       style="font-variation-settings:normal;display:inline;vector-effect:none;fill:#628252;fill-opacity:1;stroke:none;stroke-width:10;stroke-linecap:butt;stroke-linejoin:miter;stroke-miterlimit:4;stroke-dasharray:none;stroke-dashoffset:0;stroke-opacity:1;-inkscape-stroke:none;stop-color:#000000"
       d="M 26.476755,218.41434 C 26.476755,218.41434 204.60808,215.28577 251.07381,246.06524 280.38255,265.47971 317.88023,316.60394 361.82915,350.74207 393.96117,375.70122 422.64358,404.39051 434.15742,415.83794 457.99732,439.17358 473.86081,471.12301 445.09163,464.12061 441.2323,453.15834 398.74679,409.92388 343.2129,366.5259 300.08142,332.82002 256.28224,298.50098 234.98768,277.81246 186.27531,230.48642 48.0953,263.29325 21.185573,252.18206 -8.0655337,240.1041 -90.27239,251.37631 -66.196383,224.72511 -48.778151,205.4438 26.476755,218.41434 26.476755,218.41434 Z"
       id="path2248-8-5-2"
       sodipodi:nodetypes="cssccssssc" />
    <path
       style="font-variation-settings:normal;display:inline;vector-effect:none;fill:#273f2a;fill-opacity:1;stroke:none;stroke-width:10;stroke-linecap:butt;stroke-linejoin:miter;stroke-miterlimit:4;stroke-dasharray:none;stroke-dashoffset:0;stroke-opacity:1;-inkscape-stroke:none;stop-color:#000000"
       d="M 60.53476,472.69449 C 60.53476,472.69449 235.20001,375.44699 274.14079,387.09683 317.02185,399.92548 390.95306,434.33448 406.66064,443.31604 439.25792,461.59007 418.09704,483.21684 400.19556,485.35876 366.70337,483.94176 295.70978,431.22682 267.10305,427.93337 248.51863,425.79377 95.613674,513.62427 67.10495,519.52728 36.115739,525.9439 -0.70949368,558.07188 4.2638485,522.50215 7.8619085,496.76856 60.53476,472.69449 60.53476,472.69449 Z"
       id="path2248-6-3"
       sodipodi:nodetypes="csccsssc" />
    <path
       style="font-variation-settings:normal;display:inline;vector-effect:none;fill:#1b6b25;fill-opacity:1;stroke:none;stroke-width:10;stroke-linecap:butt;stroke-linejoin:miter;stroke-miterlimit:4;stroke-dasharray:none;stroke-dashoffset:0;stroke-opacity:1;-inkscape-stroke:none;stop-color:#000000"
       d="M -101.91639,284.78438 C -101.91639,284.78438 55.10337,248.25739 123.26165,332.21158 191.41994,416.1658 161.76646,415.4568 173.4611,441.29888 223.82595,484.72333 280.2769,517.26274 227.10654,517.97162 185.83801,517.66078 142.63177,479.37061 135.63812,459.943 128.64446,440.51541 121.31683,389.12287 72.27262,342.14084 23.228398,295.1588 -95.471122,338.30293 -122.45838,327.38139 -151.79376,315.50958 -200.26011,321.77996 -176.37226,294.95999 -159.09015,275.55658 -101.91639,284.78438 -101.91639,284.78438 Z"
       id="path2248-0-8"
       sodipodi:nodetypes="csccssssc" />
    <path
       style="font-variation-settings:normal;display:inline;vector-effect:none;fill:#2c5a32;fill-opacity:1;stroke:none;stroke-width:10;stroke-linecap:butt;stroke-linejoin:miter;stroke-miterlimit:4;stroke-dasharray:none;stroke-dashoffset:0;stroke-opacity:1;-inkscape-stroke:none;stop-color:#000000"
       d="M -7.0184344,292.40203 C -7.0184344,292.40203 145.83821,342.46292 179.3541,356.80077 207.06932,368.65713 363.67995,353.20706 373.82981,337.1826 380.22577,322.32218 399.23332,259.51668 376.99637,229.0234 366.7807,215.01477 257.72646,116.08652 284.76292,93.466312 301.41426,79.53487 406.69015,200.69329 420.39594,215.34262 429.77854,234.5343 423.08302,348.82756 409.22994,364.13884 393.02363,382.05108 182.5491,411.00002 157.60354,399.02247 117.55819,379.79478 16.068683,341.11303 -12.989178,339.31501 -44.575319,337.36055 -88.550458,358.67938 -74.402558,325.66761 -64.166988,301.78463 -7.0184344,292.40203 -7.0184344,292.40203 Z"
       id="path2248-66"
       sodipodi:nodetypes="cscsscssssc" />
    <path
       style="font-variation-settings:normal;display:inline;vector-effect:none;fill:#41864a;fill-opacity:1;stroke:none;stroke-width:10;stroke-linecap:butt;stroke-linejoin:miter;stroke-miterlimit:4;stroke-dasharray:none;stroke-dashoffset:0;stroke-opacity:1;-inkscape-stroke:none;stop-color:#000000"
       d="M 2.1332253,192.52729 C 2.1332253,192.52729 93.424759,106.75298 176.15323,176.39391 200.07182,196.52861 227.95555,269.984 236.06976,298.18626 244.47717,301.90786 268.27566,312.70424 296.9079,309.82552 342.96566,305.19481 443.70422,244.98723 453.49347,249.91523 457.29302,251.82795 461.54394,265.5158 461.83389,275.0483 462.13621,284.98723 429.98479,303.72337 416.6741,313.08803 387.4539,333.64572 285.80938,348.48606 252.56472,356.62944 213.81758,342.42219 215.30578,339.84522 206.97533,320.95217 194.55073,292.77382 195.54724,253.47912 149.53804,203.52115 103.00045,152.98944 30.398151,247.75002 1.3312517,246.10457 -39.342757,243.80206 -125.34617,283.9902 -93.814163,266.79506 -71.001746,254.3549 2.1332253,192.52729 2.1332253,192.52729 Z"
       id="path2248-8-8-8"
       sodipodi:nodetypes="cscsssscssssc" />
  </g>
</svg>
